<svg id="visual" viewBox="0 0 900 600" width="900" height="600" xmlns="http://www.w3.org/2000/svg" xmlns:xlink="http://www.w3.org/1999/xlink" version="1.1"><path d="M0 37L13.7 42C27.3 47 54.7 57 82 57C109.3 57 136.7 47 163.8 50C191 53 218 69 245.2 79C272.3 89 299.7 93 327 87C354.3 81 381.7 65 409 57C436.3 49 463.7 49 491 57C518.3 65 545.7 81 573 89C600.3 97 627.7 97 654.8 90C682 83 709 69 736.2 69C763.3 69 790.7 83 818 88C845.3 93 872.7 89 886.3 87L900 85L900 0L886.3 0C872.7 0 845.3 0 818 0C790.7 0 763.3 0 736.2 0C709 0 682 0 654.8 0C627.7 0 600.3 0 573 0C545.7 0 518.3 0 491 0C463.7 0 436.3 0 409 0C381.7 0 354.3 0 327 0C299.7 0 272.3 0 245.2 0C218 0 191 0 163.8 0C136.7 0 109.3 0 82 0C54.7 0 27.3 0 13.7 0L0 0Z" fill="#3e4c5f"></path><path d="M0 139L13.7 147C27.3 155 54.7 171 82 171C109.3 171 136.7 155 163.8 165C191 175 218 211 245.2 230C272.3 249 299.7 251 327 241C354.3 231 381.7 209 409 199C436.3 189 463.7 191 491 203C518.3 215 545.7 237 573 256C600.3 275 627.7 291 654.8 307C682 323 709 339 736.2 319C763.3 299 790.7 243 818 223C845.3 203 872.7 219 886.3 227L900 235L900 83L886.3 85C872.7 87 845.3 91 818 86C790.7 81 763.3 67 736.2 67C709 67 682 81 654.8 88C627.7 95 600.3 95 573 87C545.7 79 518.3 63 491 55C463.7 47 436.3 47 409 55C381.7 63 354.3 79 327 85C299.7 91 272.3 87 245.2 77C218 67 191 51 163.8 48C136.7 45 109.3 55 82 55C54.7 55 27.3 45 13.7 40L0 35Z" fill="#2e3a4b"></path><path d="M0 193L13.7 216C27.3 239 54.7 285 82 298C109.3 311 136.7 291 163.8 295C191 299 218 327 245.2 338C272.3 349 299.7 343 327 336C354.3 329 381.7 321 409 310C436.3 299 463.7 285 491 288C518.3 291 545.7 311 573 337C600.3 363 627.7 395 654.8 409C682 423 709 419 736.2 403C763.3 387 790.7 359 818 337C845.3 315 872.7 299 886.3 291L900 283L900 233L886.3 225C872.7 217 845.3 201 818 221C790.7 241 763.3 297 736.2 317C709 337 682 321 654.8 305C627.7 289 600.3 273 573 254C545.7 235 518.3 213 491 201C463.7 189 436.3 187 409 197C381.7 207 354.3 229 327 239C299.7 249 272.3 247 245.2 228C218 209 191 173 163.8 163C136.7 153 109.3 169 82 169C54.7 169 27.3 153 13.7 145L0 137Z" fill="#1f2937"></path><path d="M0 499L13.7 503C27.3 507 54.7 515 82 522C109.3 529 136.7 535 163.8 532C191 529 218 517 245.2 519C272.3 521 299.7 537 327 540C354.3 543 381.7 533 409 534C436.3 535 463.7 547 491 543C518.3 539 545.7 519 573 514C600.3 509 627.7 519 654.8 525C682 531 709 533 736.2 536C763.3 539 790.7 543 818 538C845.3 533 872.7 519 886.3 512L900 505L900 281L886.3 289C872.7 297 845.3 313 818 335C790.7 357 763.3 385 736.2 401C709 417 682 421 654.8 407C627.7 393 600.3 361 573 335C545.7 309 518.3 289 491 286C463.7 283 436.3 297 409 308C381.7 319 354.3 327 327 334C299.7 341 272.3 347 245.2 336C218 325 191 297 163.8 293C136.7 289 109.3 309 82 296C54.7 283 27.3 237 13.7 214L0 191Z" fill="#1c2430"></path><path d="M0 601L13.7 601C27.3 601 54.7 601 82 601C109.3 601 136.7 601 163.8 601C191 601 218 601 245.2 601C272.3 601 299.7 601 327 601C354.3 601 381.7 601 409 601C436.3 601 463.7 601 491 601C518.3 601 545.7 601 573 601C600.3 601 627.7 601 654.8 601C682 601 709 601 736.2 601C763.3 601 790.7 601 818 601C845.3 601 872.7 601 886.3 601L900 601L900 503L886.3 510C872.7 517 845.3 531 818 536C790.7 541 763.3 537 736.2 534C709 531 682 529 654.8 523C627.7 517 600.3 507 573 512C545.7 517 518.3 537 491 541C463.7 545 436.3 533 409 532C381.7 531 354.3 541 327 538C299.7 535 272.3 519 245.2 517C218 515 191 527 163.8 530C136.7 533 109.3 527 82 520C54.7 513 27.3 505 13.7 501L0 497Z" fill="#191f29"></path></svg>